<?xml version="1.0" standalone="no"?>
<!DOCTYPE svg PUBLIC "-//W3C//DTD SVG 20010904//EN"
 "http://www.w3.org/TR/2001/REC-SVG-20010904/DTD/svg10.dtd">
<svg version="1.0" xmlns="http://www.w3.org/2000/svg"
 width="3611.000000pt" height="2475.000000pt" viewBox="0 0 3611.000000 2475.000000"
 preserveAspectRatio="xMidYMid meet">
<metadata>
Created by potrace 1.16, written by Peter Selinger 2001-2019
</metadata>
<g transform="translate(0.000000,2475.000000) scale(0.100000,-0.100000)"
fill="#000000" stroke="none">
                                    <path d="M23972 23660 c-45 -4 -86 -10 -89 -14 -6 -6 1668 -23117 1684 -23249
                                    l6 -48 101 7 c55 3 104 9 108 13 3 3 -375 5246 -840 11651 -822 11301 -848
                                    11645 -867 11646 -11 1 -57 -2 -103 -6z"/>
                                    <path d="M4978 23562 c-1011 -93 -1048 -97 -1048 -117 0 -23 611 -7579 614
                                    -7582 1 -1 218 6 484 15 265 8 485 13 488 9 6 -6 28 -189 95 -789 13 -109 20
                                    -201 16 -204 -4 -4 -100 -15 -214 -25 -602 -53 -790 -70 -809 -74 -19 -4 -20
                                    -9 -12 -85 26 -274 92 -1279 193 -2970 68 -1137 106 -1743 110 -1748 1 -1 222
                                    9 491 23 269 14 499 25 510 25 19 0 22 -7 28 -73 9 -106 34 -529 41 -702 3
                                    -82 8 -173 11 -202 6 -60 19 -54 -168 -78 -104 -13 -757 -75 -793 -75 -29 0
                                    -17 -849 14 -1035 l6 -40 60 -7 c33 -4 261 -10 508 -14 l447 -7 0 -24 c0 -111
                                    116 -1721 136 -1899 l6 -52 -38 -6 c-84 -12 -283 -28 -602 -46 -184 -10 -335
                                    -20 -337 -22 -3 -3 44 -670 70 -983 28 -341 69 -725 82 -769 5 -18 14 -19 162
                                    -13 86 4 296 18 466 32 171 14 322 25 336 25 25 0 27 -4 33 -58 12 -110 26
                                    -380 41 -782 29 -775 48 -1027 91 -1194 30 -119 59 -178 113 -233 84 -88 84
                                    -88 478 -158 339 -60 1072 -185 1088 -185 3 0 5 -108 3 -240 -2 -132 -3 -240
                                    -3 -240 0 -2 5539 -49 5788 -50 l317 0 0 34 c0 18 13 159 29 312 37 342 47
                                    484 35 484 -26 1 -1756 238 -1760 242 -7 8 16 263 57 613 21 187 39 357 39
                                    377 0 34 -3 38 -32 42 -40 7 -100 14 -1453 166 -1687 190 -2403 274 -2675 314
                                    -52 8 -95 14 -96 13 -1 -1 -9 -94 -18 -207 -16 -193 -58 -578 -74 -682 l-7
                                    -46 -145 47 c-413 134 -657 329 -708 566 -6 28 -13 142 -16 255 -8 310 -50
                                    993 -216 3500 -146 2206 -201 3113 -189 3124 8 8 326 46 674 81 193 19 365 37
                                    383 41 l33 5 -6 77 c-3 42 -17 237 -31 432 -13 195 -65 897 -114 1560 -97
                                    1304 -163 2213 -180 2490 -6 96 -13 199 -16 228 l-6 53 -534 -7 -534 -7 -1 34
                                    c0 19 -134 1962 -297 4319 l-297 4285 -50 2 c-28 0 -521 -42 -1097 -95z"/>
                                    <path d="M3562 23530 c-45 -4 -86 -10 -89 -14 -6 -6 1742 -22641 1753 -22693
                                    3 -18 9 -21 41 -17 21 2 68 6 106 10 l67 6 -1 51 c0 29 -395 5139 -877 11357
                                    -849 10943 -878 11305 -897 11306 -11 1 -57 -2 -103 -6z"/>
                                    <path d="M10136 23478 c-4 -29 -20 -208 -36 -397 -16 -189 -31 -346 -34 -349
                                    -3 -3 -313 37 -690 87 -376 51 -694 91 -707 89 -23 -3 -23 -5 -190 -1381 -92
                                    -758 -169 -1380 -171 -1383 -3 -2 -424 43 -936 101 -511 58 -942 105 -957 105
                                    -23 0 -26 -4 -23 -27 l3 -28 969 -109 c712 -81 971 -106 974 -98 2 7 7 10 12
                                    7 5 -3 11 3 13 12 3 10 79 627 168 1371 90 744 166 1357 169 1362 5 9 1348
                                    -166 1360 -177 5 -4 -1147 -13294 -1154 -13300 -2 -2 -389 44 -860 102 -472
                                    58 -868 105 -882 105 -19 0 -24 -5 -24 -25 0 -14 6 -27 13 -30 6 -2 629 -79
                                    1382 -171 754 -92 1371 -168 1372 -169 2 -1 -28 -213 -67 -471 -38 -258 -79
                                    -548 -92 -644 l-24 -175 -344 -143 c-190 -78 -427 -182 -528 -232 l-182 -89
                                    19 -48 c10 -26 33 -84 51 -128 17 -44 63 -152 101 -241 l70 -161 -61 -97
                                    c-292 -463 -398 -974 -300 -1434 158 -740 807 -1324 1620 -1457 52 -9 163 -18
                                    245 -22 423 -17 848 105 1211 346 168 112 260 189 410 343 201 208 356 424
                                    521 728 l73 135 117 0 118 0 17 80 c34 160 69 368 123 725 30 201 55 368 55
                                    371 0 4 29 0 64 -7 36 -7 149 -25 252 -38 103 -14 189 -28 191 -30 4 -4 -121
                                    -957 -133 -1013 -4 -23 -6 -23 -182 -23 l-177 0 -47 -130 c-26 -72 -45 -137
                                    -42 -145 5 -11 22 -15 61 -15 48 0 54 -2 49 -17 -4 -10 -154 -384 -334 -830
                                    -300 -745 -329 -813 -350 -813 -32 0 -4195 499 -4199 504 -2 2 -63 995 -134
                                    2207 -72 1212 -135 2213 -140 2224 -9 18 -50 27 -367 78 -196 32 -363 58 -369
                                    57 -7 0 -13 -13 -13 -29 l0 -28 124 -18 c69 -10 129 -21 134 -24 5 -3 64
                                    -1071 131 -2401 67 -1317 122 -2406 124 -2420 1 -17 9 -26 22 -27 61 -6 6720
                                    -787 6722 -788 1 -1 -30 -234 -69 -519 -59 -432 -68 -520 -57 -527 23 -15 38
                                    -10 44 14 3 12 104 746 224 1630 121 885 222 1611 224 1614 14 14 5036 -713
                                    5701 -825 73 -12 109 -15 111 -8 2 6 29 198 60 426 121 892 265 1864 278 1877
                                    4 4 197 -21 430 -55 576 -84 525 -79 531 -51 3 13 14 105 26 204 48 405 328
                                    2519 375 2832 8 54 13 98 12 99 -1 1 -225 43 -497 94 -272 51 -497 94 -499 96
                                    -2 2 19 165 48 361 28 197 67 472 86 612 19 140 36 255 37 256 2 1 226 -31
                                    498 -71 272 -40 495 -72 496 -71 2 3 230 1634 257 1839 l24 176 -71 11 c-2078
                                    309 -10938 1613 -10941 1609 -3 -3 -53 -360 -111 -794 -58 -434 -108 -796
                                    -112 -805 -6 -13 -70 -5 -513 66 l-506 81 -57 -461 c-31 -253 -75 -614 -98
                                    -803 -34 -279 -44 -342 -56 -337 -7 3 -37 8 -66 11 l-51 6 -18 -222 c-10 -123
                                    -16 -224 -14 -226 2 -2 175 -34 385 -71 l382 -68 0 -35 c0 -34 -28 -241 -32
                                    -246 -2 -1 -59 9 -128 22 -119 23 -533 90 -595 96 -27 3 -30 0 -37 -37 -19
                                    -88 -91 -522 -153 -915 -36 -228 -67 -431 -70 -451 l-6 -35 -249 31 c-137 17
                                    -252 34 -256 37 -5 6 594 7429 601 7436 4 4 6527 -856 6532 -862 3 -3 -5 -93
                                    -18 -201 -14 -120 -19 -198 -13 -203 5 -5 182 -30 394 -56 212 -26 391 -48
                                    398 -49 8 -1 20 16 27 38 16 46 45 236 38 248 -2 4 -15 7 -27 7 -26 0 -29 -10
                                    -42 -117 -4 -36 -11 -63 -18 -63 -25 0 -707 88 -710 91 -1 2 167 1374 375
                                    3049 208 1675 378 3055 379 3068 0 20 -4 23 -27 20 l-27 -3 -357 -2878 c-196
                                    -1582 -358 -2880 -361 -2882 -5 -6 -6529 852 -6536 859 -2 3 118 1507 267
                                    3343 149 1836 271 3348 271 3361 0 17 -6 22 -25 22 -18 0 -26 -6 -29 -22 -3
                                    -13 -262 -3191 -576 -7063 -313 -3872 -573 -7063 -576 -7091 l-6 -50 -186 23
                                    c-102 13 -188 26 -191 28 -2 3 271 3178 608 7057 336 3879 613 7067 614 7083
                                    2 26 -2 30 -25 33 -25 3 -27 0 -32 -50z m7192 -9867 c2978 -440 5415 -801
                                    5417 -803 5 -5 -17 -170 -145 -1088 -130 -925 -120 -860 -128 -860 -4 0 -226
                                    32 -495 71 -268 40 -489 70 -491 68 -3 -2 -25 -155 -51 -339 -25 -184 -66
                                    -472 -91 -639 -24 -167 -42 -306 -39 -309 3 -3 226 -47 496 -98 269 -50 492
                                    -94 495 -97 3 -2 -11 -117 -30 -253 -74 -521 -339 -2537 -361 -2749 -4 -33 -9
                                    -67 -11 -76 -5 -18 36 -23 -577 67 -208 31 -380 54 -383 52 -11 -11 -192
                                    -1248 -305 -2078 -17 -129 -32 -236 -33 -237 -1 -1 -38 4 -82 12 -150 26 -859
                                    134 -1509 230 -1306 193 -5482 785 -5535 785 -22 0 -23 1 -17 73 4 39 38 302
                                    76 582 38 281 71 528 73 549 4 48 16 44 -233 76 -91 11 -203 29 -250 38 l-85
                                    17 -43 -290 c-73 -492 -140 -877 -156 -893 -2 -3 -55 -4 -117 -3 l-113 2 -49
                                    -98 c-395 -799 -1030 -1318 -1751 -1433 -251 -40 -472 -35 -722 15 -315 64
                                    -645 222 -887 424 -327 274 -531 606 -618 1004 -20 89 -22 131 -22 332 0 200
                                    3 243 22 331 59 272 167 530 318 762 l55 84 -47 101 c-61 133 -184 436 -184
                                    453 0 27 227 132 730 339 157 65 289 122 294 126 6 5 44 251 87 546 42 296 85
                                    589 94 650 l18 113 67 -6 c63 -6 68 -5 75 15 10 32 1 38 -66 45 -34 3 -63 7
                                    -64 9 -8 8 218 1394 229 1404 5 5 430 -63 606 -97 80 -15 146 -27 147 -26 1 1
                                    28 205 38 293 5 49 4 53 -17 58 -13 3 -165 30 -338 60 -173 31 -338 60 -365
                                    65 l-50 10 16 193 c9 105 17 192 18 193 0 0 29 -4 64 -11 l62 -11 98 800 c54
                                    440 99 801 100 802 1 1 228 -35 505 -79 276 -44 505 -77 509 -74 3 4 55 368
                                    114 809 60 442 109 803 109 804 0 0 26 -3 58 -8 31 -4 2493 -368 5470 -807z
                                    m-9619 -5181 c95 -16 175 -30 176 -32 1 -2 62 -997 134 -2211 117 -1963 134
                                    -2210 149 -2226 14 -15 479 -73 3172 -396 1735 -207 3156 -378 3156 -379 1 0
                                    -8 -67 -18 -147 l-20 -145 -67 8 c-36 4 -1542 181 -3345 393 -1804 212 -3281
                                    387 -3282 388 -3 2 -244 4708 -244 4755 0 12 3 22 8 22 4 0 85 -13 181 -30z
                                    m5707 -3109 c-7 -73 -3 -81 46 -81 15 0 18 -4 13 -17 -4 -10 -153 -409 -332
                                    -888 -180 -478 -329 -873 -332 -877 -6 -7 -307 24 -315 33 -2 2 149 382 335
                                    844 187 461 339 847 339 857 0 15 -9 18 -61 18 -49 0 -60 3 -56 14 3 8 18 49
                                    33 90 l27 76 155 0 155 0 -7 -69z m762 -180 c310 -44 566 -81 569 -84 5 -6
                                    -236 -1798 -243 -1806 -4 -4 -1627 189 -1632 194 -3 2 655 1762 664 1777 3 5
                                    22 6 42 3 20 -4 290 -41 600 -84z"/>
                                    <path d="M11915 14218 c-12 -56 -204 -1562 -200 -1567 3 -2 237 -35 521 -72
                                    284 -37 521 -72 527 -77 7 -6 36 -13 65 -17 43 -6 52 -4 52 9 0 11 -14 17 -50
                                    22 -45 6 -50 9 -50 31 0 24 1 24 58 18 98 -11 99 -11 94 -44 -4 -26 0 -31 22
                                    -37 15 -3 29 -5 31 -3 7 8 212 1584 206 1590 -5 6 -1224 169 -1259 169 -6 0
                                    -14 -10 -17 -22z"/>
                                    <path d="M13240 14048 c0 -7 -46 -365 -102 -795 -56 -430 -100 -784 -98 -786
                                    8 -7 1017 -138 1108 -144 58 -4 82 -2 82 6 0 6 -18 11 -45 11 -39 0 -45 3 -45
                                    20 0 19 4 20 53 15 93 -11 97 -13 97 -44 0 -23 5 -30 28 -34 15 -3 30 -2 33 1
                                    7 8 213 1581 208 1586 -2 2 -285 40 -629 85 -344 44 -640 83 -657 86 -23 4
                                    -33 2 -33 -7z"/>
                                    <path d="M14610 13848 c0 -2 -47 -358 -104 -793 -58 -434 -103 -791 -102 -792
                                    1 -2 193 -28 427 -58 233 -31 469 -63 524 -71 132 -20 207 -23 212 -6 3 8 -11
                                    12 -50 12 -50 0 -55 2 -50 20 5 18 11 20 57 15 92 -11 96 -13 96 -45 0 -26 3
                                    -30 29 -30 26 0 30 4 35 38 12 68 204 1547 202 1549 -3 4 -1228 163 -1253 163
                                    -12 0 -23 -1 -23 -2z"/>
                                    <path d="M15950 13672 c-3 -46 -207 -1643 -211 -1646 -2 -3 -674 92 -1493 210
                                    -818 119 -1489 214 -1491 212 -2 -2 -106 -730 -230 -1618 -124 -888 -227
                                    -1625 -230 -1636 -6 -29 -30 -32 -295 -40 -231 -7 -373 2 -560 37 -120 23
                                    -295 70 -389 105 -60 23 -66 23 -88 8 l-25 -16 21 -22 c12 -12 21 -25 21 -28
                                    0 -3 -41 -42 -91 -88 l-90 -83 -29 28 -29 28 -50 -42 c-36 -30 -52 -52 -56
                                    -74 -3 -18 -21 -144 -40 -282 -20 -137 -38 -258 -41 -267 -4 -12 2 -19 18 -23
                                    64 -14 322 -53 860 -130 326 -46 621 -90 656 -96 l63 -11 97 -142 c54 -77 165
                                    -240 247 -361 81 -121 212 -308 290 -415 160 -220 161 -223 146 -370 -5 -47
                                    -6 -88 -3 -92 4 -4 147 -27 317 -52 171 -26 345 -52 388 -60 76 -13 77 -13 82
                                    8 23 111 145 1076 145 1151 0 60 -11 60 366 1 192 -31 404 -63 472 -72 67 -10
                                    122 -22 122 -28 0 -5 -25 -183 -55 -395 -52 -371 -95 -718 -95 -771 0 -25 2
                                    -26 151 -46 85 -12 154 -26 158 -33 9 -15 156 -11 156 4 0 6 -34 11 -77 13
                                    -78 3 -89 9 -70 39 6 10 42 8 162 -7 229 -30 219 -27 213 -51 -4 -14 -11 -18
                                    -22 -14 -99 40 -124 46 -134 36 -7 -7 -1 -14 21 -24 18 -7 30 -16 27 -19 -3
                                    -2 1 -5 8 -6 6 -1 35 -6 62 -11 89 -18 383 -53 393 -47 5 3 12 38 16 78 3 40
                                    26 213 51 383 24 171 51 382 60 470 10 88 18 160 19 161 12 7 530 -65 1631
                                    -226 1367 -200 2257 -319 2274 -304 9 8 89 704 81 709 -3 2 -185 33 -405 70
                                    -359 60 -634 110 -641 118 -2 1 101 801 227 1776 127 975 229 1774 227 1776
                                    -2 2 -586 94 -1298 206 -712 111 -1298 204 -1301 208 -3 3 44 380 105 838
                                    l112 832 -26 6 c-14 2 -142 23 -285 46 -143 22 -263 45 -266 50 -8 13 -199 7
                                    -199 -6 0 -6 40 -11 95 -13 75 -2 95 -6 95 -17 0 -18 -5 -18 -107 -5 -145 19
                                    -143 18 -143 46 0 13 -6 26 -12 28 -32 10 -78 15 -78 8z m190 -2292 c1251
                                    -189 2277 -345 2279 -347 2 -1 -4 -50 -14 -108 -10 -58 -16 -107 -14 -109 2
                                    -3 69 -16 148 -30 79 -14 146 -28 148 -30 5 -5 -401 -2704 -408 -2710 -2 -2
                                    -60 6 -127 18 -86 16 -125 20 -128 12 -2 -6 -11 -54 -19 -106 -9 -52 -17 -95
                                    -18 -96 -1 0 -1080 162 -2397 361 -1317 199 -2416 365 -2441 369 l-46 7 19
                                    105 c11 59 18 107 16 109 -2 2 -73 16 -158 31 -85 15 -156 28 -157 29 -4 2
                                    407 2708 412 2713 3 3 69 -6 148 -20 78 -14 143 -25 144 -24 2 2 10 40 18 87
                                    9 46 17 93 20 105 l5 21 147 -22 c82 -12 1172 -177 2423 -365z"/>
                                    <path d="M13597 11688 c-3 -13 -11 -58 -18 -100 -7 -43 -15 -78 -18 -78 -4 0
                                    -69 11 -145 25 -77 14 -141 24 -142 22 -9 -9 -400 -2643 -393 -2647 5 -3 74
                                    -17 154 -30 166 -28 154 -14 129 -148 -8 -46 -14 -85 -12 -87 3 -2 901 -139
                                    2973 -451 700 -105 676 -102 1115 -168 642 -97 703 -106 708 -102 2 3 11 48
                                    20 100 13 75 20 96 33 96 8 0 65 -9 124 -20 60 -10 110 -18 111 -17 9 11 399
                                    2639 392 2643 -4 3 -69 16 -144 29 -76 14 -139 27 -141 29 -3 3 3 50 13 105
                                    10 56 16 103 13 105 -2 2 -96 18 -209 35 -113 17 -1174 177 -2359 356 -1184
                                    179 -2163 325 -2176 325 -15 0 -25 -7 -28 -22z"/>
                                    <path d="M16905 13498 c-8 -51 -195 -1568 -195 -1587 0 -13 14 -21 53 -29 95
                                    -22 210 -33 221 -22 16 16 3 20 -98 32 -72 8 -96 14 -96 25 0 11 8 13 28 9 15
                                    -3 71 -10 124 -17 l97 -11 -6 -29 c-3 -16 -3 -29 0 -29 4 0 300 -45 659 -100
                                    791 -121 768 -118 768 -97 0 9 4 18 9 21 5 3 60 -1 122 -9 62 -8 114 -15 116
                                    -15 2 0 3 -7 3 -15 0 -19 -5 -19 -113 1 -83 15 -131 13 -111 -5 13 -12 184
                                    -41 242 -41 60 0 48 -38 92 295 16 127 64 488 105 804 41 316 74 575 73 577
                                    -2 1 -228 32 -503 68 -1039 136 -1574 206 -1579 206 -3 0 -8 -15 -11 -32z"/>
                                    <path d="M18936 12420 c-60 -456 -106 -836 -103 -845 4 -8 17 -15 30 -15 13 0
                                    27 -4 32 -9 15 -13 182 -24 189 -12 10 15 -5 20 -92 27 -45 4 -82 10 -82 13 1
                                    29 20 29 198 4 159 -23 182 -29 182 -44 0 -16 -11 -19 -80 -21 -112 -4 -102
                                    -22 15 -26 80 -2 95 -5 95 -19 0 -23 -34 -279 -264 -2013 -113 -844 -204
                                    -1536 -202 -1537 5 -6 1016 -166 1020 -162 2 2 63 432 136 954 72 523 133 952
                                    135 954 2 1 210 -22 462 -53 252 -31 469 -57 483 -59 l25 -2 142 790 c78 435
                                    142 800 143 813 0 18 4 21 23 17 44 -10 962 -153 965 -150 4 4 241 1649 238
                                    1652 -1 1 -794 128 -1761 282 -968 155 -1774 283 -1790 286 l-31 5 -108 -830z"/>
                                    <path d="M10686 12683 c-14 -84 -196 -1488 -196 -1510 0 -13 2 -23 5 -23 7 0
                                    1822 -237 1910 -249 38 -6 70 -9 71 -8 1 1 4 21 7 45 5 41 4 42 -24 42 -34 0
                                    -33 -7 -14 130 8 58 15 108 15 113 0 4 9 7 20 7 24 0 24 6 5 -100 -18 -104
                                    -19 -123 -2 -118 13 5 32 106 41 222 3 38 40 327 81 644 42 316 73 577 70 580
                                    -4 5 -1696 230 -1925 257 l-58 7 -6 -39z"/>
                                    <path d="M11136 10994 c-9 -58 -126 -952 -126 -964 0 -5 10 -10 22 -10 12 0
                                    19 -2 17 -5 -3 -2 -180 18 -393 46 -213 28 -389 49 -390 47 -2 -1 -30 -208
                                    -63 -458 -52 -403 -57 -456 -44 -462 9 -4 126 -23 260 -43 l244 -36 26 25 c25
                                    25 25 25 5 47 l-19 21 90 83 90 84 25 -24 25 -24 28 22 c27 21 29 30 73 322
                                    50 338 51 345 63 345 4 0 -3 -78 -15 -172 -30 -224 -31 -208 10 -208 55 0 126
                                    12 126 21 0 5 -25 9 -55 9 -49 0 -55 2 -55 21 0 19 4 20 58 14 102 -11 104
                                    -12 97 -45 -6 -27 -4 -30 17 -30 23 0 24 4 47 178 12 97 24 178 25 179 1 2 62
                                    -5 135 -15 92 -13 134 -15 136 -8 2 6 6 34 9 61 13 102 116 891 120 915 l5 26
                                    -257 33 c-141 18 -273 35 -293 38 -36 5 -37 5 -43 -33z"/>
                                    <path d="M11785 10936 c-3 -9 -120 -908 -128 -981 -2 -18 9 -21 113 -33 63 -7
                                    116 -15 118 -17 2 -2 -9 -83 -25 -180 l-30 -175 21 -5 c38 -8 164 -25 185 -25
                                    17 0 21 6 21 31 l0 31 58 -6 c108 -13 123 -17 120 -35 -3 -13 -14 -15 -53 -12
                                    -88 7 -100 6 -103 -4 -3 -11 94 -34 150 -35 42 0 34 -23 73 215 28 178 156
                                    1147 152 1152 -2 1 -142 21 -313 43 -170 22 -319 42 -332 44 -13 2 -25 -2 -27
                                    -8z"/>
                                    <path d="M10305 10457 c-12 -75 -35 -260 -35 -285 l0 -27 340 -44 c187 -24
                                    343 -41 347 -37 13 13 50 338 39 341 -6 2 -77 11 -158 21 -82 9 -148 20 -148
                                    24 0 5 -19 15 -41 24 -59 24 -75 4 -20 -23 28 -15 41 -28 41 -43 0 -18 -4 -20
                                    -37 -14 -21 3 -77 11 -125 18 -60 8 -88 16 -88 25 0 9 15 13 49 13 42 0 73 13
                                    60 24 -2 2 -52 6 -111 9 l-107 7 -6 -33z"/>
                                    <path d="M11322 9778 c-12 -94 -20 -173 -18 -176 9 -9 294 -44 345 -43 59 2
                                    71 6 71 23 0 7 -20 8 -60 4 -59 -7 -68 -3 -52 22 6 9 26 10 78 4 l69 -7 -1
                                    -33 c-2 -29 1 -32 25 -32 l27 0 22 172 c12 94 21 172 19 174 -4 4 -456 64
                                    -482 64 -20 0 -23 -11 -43 -172z"/>
                                    <path d="M20175 9608 c-2 -13 -66 -493 -141 -1068 -75 -575 -140 -1047 -144
                                    -1050 -8 -5 -40 -117 -40 -140 0 -6 5 -10 12 -8 7 3 19 33 28 69 12 50 20 65
                                    36 67 20 3 20 1 -5 -188 -20 -156 -28 -190 -41 -190 -13 0 -15 12 -12 76 4 61
                                    2 76 -9 72 -10 -3 -14 -27 -16 -84 -1 -43 -3 -108 -5 -144 l-3 -64 930 -122
                                    c512 -67 947 -125 967 -127 33 -5 37 -3 42 22 11 52 348 2643 344 2646 -3 3
                                    -457 63 -1438 190 -228 30 -434 57 -457 60 -38 6 -43 4 -48 -17z"/>
                                    <path d="M11011 9518 c-7 -51 -15 -107 -17 -124 l-6 -31 109 -36 c224 -75 568
                                    -125 906 -134 181 -5 221 -4 228 8 14 22 11 39 -7 39 -13 0 -15 10 -9 68 8 76
                                    11 82 31 82 9 0 14 11 14 33 l0 32 -603 78 c-331 43 -609 78 -618 78 -13 -1
                                    -19 -21 -28 -93z"/>
                                    <path d="M10861 8263 c-14 -58 -44 -283 -38 -290 13 -13 25 10 31 63 20 169
                                    28 204 48 204 16 0 18 -5 14 -32 -3 -18 -11 -104 -17 -190 l-12 -158 -27 0
                                    c-15 0 -30 -6 -33 -14 -4 -9 -29 -16 -69 -21 -521 -55 -929 -161 -1523 -394
                                    -143 -57 -268 -106 -277 -109 -16 -6 -12 -19 32 -109 27 -57 53 -103 58 -103
                                    23 0 19 19 -18 88 -31 58 -38 77 -28 83 9 6 28 -22 69 -104 55 -108 56 -112
                                    36 -120 -12 -4 -23 -9 -25 -11 -2 -2 27 -64 63 -137 l66 -134 -62 -65 c-153
                                    -159 -271 -403 -336 -695 -31 -139 -42 -421 -23 -572 43 -346 190 -645 439
                                    -893 201 -200 364 -294 649 -374 172 -49 312 -68 534 -73 369 -9 639 44 924
                                    182 473 230 802 632 1023 1250 33 94 15 90 229 52 l132 -24 5 21 c8 37 165
                                    1394 165 1427 0 21 -18 57 -62 120 -35 49 -70 103 -80 120 -21 40 -96 95 -109
                                    82 -7 -7 3 -21 31 -43 28 -22 38 -36 31 -43 -7 -7 -14 -7 -24 1 -24 20 -136
                                    189 -130 196 15 14 31 4 52 -34 22 -39 31 -46 44 -34 9 10 -22 65 -53 94 -23
                                    22 -287 375 -458 611 l-62 87 -52 6 c-391 46 -1104 126 -1123 126 -20 0 -26
                                    -7 -34 -37z"/>
                                    <path d="M13906 7818 c-3 -18 -31 -224 -61 -458 -31 -234 -62 -474 -70 -533
                                    -21 -149 -21 -147 15 -147 24 0 30 4 30 21 0 20 4 21 58 15 102 -12 112 -16
                                    112 -40 0 -21 6 -24 98 -35 53 -7 193 -25 309 -40 l213 -28 5 31 c12 65 65
                                    492 65 518 0 23 -4 28 -25 28 -29 0 -29 -1 -14 89 10 60 14 68 31 63 14 -3 18
                                    -11 14 -26 -17 -71 -18 -98 -5 -94 13 4 41 107 32 121 -2 4 8 102 23 218 16
                                    124 23 213 18 218 -8 7 -784 112 -826 111 -11 0 -19 -11 -22 -32z"/>
                                    <path d="M15900 7463 c0 -4 -12 -93 -27 -198 -33 -237 -38 -295 -25 -295 14 0
                                    22 26 22 76 0 38 3 44 21 44 19 0 20 -4 14 -52 -13 -107 -13 -108 -46 -101
                                    -16 3 -29 2 -29 -3 0 -5 -14 -118 -31 -252 -18 -133 -29 -245 -26 -248 8 -8
                                    759 -105 766 -99 5 6 142 1027 138 1031 -1 1 -162 23 -357 48 -195 25 -370 48
                                    -387 51 -18 3 -33 2 -33 -2z"/>
                                    <path d="M16710 7324 c0 -11 -9 -86 -20 -169 -11 -82 -38 -294 -60 -470 -22
                                    -176 -42 -329 -45 -341 -4 -20 4 -22 198 -49 111 -15 206 -31 211 -35 4 -5 -4
                                    -103 -19 -220 -16 -122 -24 -214 -19 -219 9 -8 743 -105 749 -99 1 2 6 17 9
                                    34 7 30 5 32 -29 38 -32 6 -36 10 -31 29 3 12 8 53 12 90 l7 69 34 -4 c27 -3
                                    34 0 38 16 3 12 27 199 55 416 28 217 62 476 75 575 16 124 21 182 13 186 -6
                                    4 -42 10 -80 14 -39 3 -76 9 -84 12 -10 3 -16 -5 -20 -27 -6 -26 -11 -31 -28
                                    -26 -12 3 -64 10 -116 17 -102 12 -114 17 -101 38 7 11 22 11 92 -2 46 -9 88
                                    -12 93 -7 14 13 -24 27 -109 38 -44 6 -233 32 -420 57 -187 26 -355 49 -372
                                    52 -27 4 -33 2 -33 -13z"/>
                                    <path d="M17935 7146 c-4 -20 -27 -195 -106 -803 -18 -139 -30 -256 -26 -260
                                    6 -5 2296 -310 2757 -367 l55 -7 71 543 c40 299 71 544 69 546 -2 2 -550 75
                                    -1755 231 -382 50 -709 93 -726 96 -29 5 -32 3 -38 -26 -5 -26 -10 -30 -28
                                    -26 -13 3 -67 11 -120 18 -87 11 -98 15 -98 32 0 18 5 19 53 13 28 -3 69 -9
                                    90 -12 29 -5 37 -3 37 8 0 12 -20 18 -77 26 -114 16 -153 13 -158 -12z"/>
                                    <path d="M13760 6647 c0 -2 -11 -89 -25 -193 -14 -104 -25 -192 -25 -195 0 -8
                                    269 -44 275 -37 6 5 55 349 55 380 0 13 -8 18 -30 18 -24 0 -30 -4 -30 -21 0
                                    -17 -5 -20 -27 -15 -16 3 -54 8 -85 12 -53 6 -58 9 -58 30 0 19 -5 24 -25 24
                                    -14 0 -25 -2 -25 -3z"/>
                                    <path d="M14067 6593 c-18 -92 -48 -366 -41 -373 9 -7 514 -74 519 -68 2 2 13
                                    77 24 168 12 91 24 179 27 196 5 28 3 32 -20 36 -21 4 -26 1 -32 -25 -6 -29
                                    -7 -29 -51 -23 -25 3 -51 6 -58 6 -8 0 -11 8 -8 19 4 15 15 21 46 23 22 2 42
                                    9 45 15 3 10 -14 13 -65 12 -59 -1 -251 20 -350 37 -28 5 -32 3 -36 -23z"/>
                                    <path d="M15870 6368 c0 -7 -12 -104 -26 -216 -15 -111 -24 -206 -20 -209 6
                                    -7 268 -44 273 -40 2 3 33 237 33 254 0 7 -12 16 -26 19 -26 7 -26 8 -20 62 7
                                    62 10 67 26 57 7 -5 9 -21 5 -47 -6 -31 -4 -39 6 -36 16 5 27 39 28 90 1 42 6
                                    40 -149 58 -52 6 -103 14 -112 16 -11 3 -18 0 -18 -8z"/>
                                    <path d="M16176 6318 c-5 -16 -166 -1256 -166 -1279 0 -12 64 -23 374 -63 206
                                    -27 380 -46 388 -44 9 4 36 183 97 647 46 353 82 643 80 644 -42 28 -179 37
                                    -179 12 0 -11 13 -15 54 -15 50 0 54 -2 49 -21 -5 -18 -11 -20 -47 -14 -110
                                    17 -106 15 -106 46 0 33 19 28 -265 64 -110 14 -217 28 -237 31 -27 4 -39 2
                                    -42 -8z"/>
                                    <path d="M13705 6207 c-3 -12 -21 -143 -40 -292 -19 -148 -42 -296 -51 -329
                                    -15 -56 -12 -99 5 -80 4 5 13 35 20 67 10 45 16 57 32 57 22 0 23 -3 8 -87
                                    -10 -60 -13 -63 -39 -63 -20 0 -29 -6 -33 -22 -4 -12 -4 -24 -2 -26 4 -5 827
                                    -113 831 -109 4 4 105 789 101 793 -2 2 -176 26 -388 53 -211 28 -396 53 -411
                                    55 -23 5 -29 1 -33 -17z"/>
                                    <path d="M17777 6025 c-14 -36 -8 -52 24 -59 31 -6 31 -7 25 -51 -21 -152 -15
                                    -138 -50 -132 l-32 5 -63 -485 c-35 -267 -59 -488 -55 -492 5 -5 398 -59 874
                                    -120 476 -62 890 -116 920 -121 30 -4 56 -7 57 -6 2 2 133 996 133 1012 0 6
                                    -13 14 -29 17 l-28 6 9 53 c14 88 18 98 34 98 12 0 14 -10 8 -60 -4 -40 -3
                                    -60 4 -60 17 0 20 10 26 92 6 75 6 78 -16 83 -13 2 -286 39 -608 80 -322 42
                                    -700 91 -840 110 -376 50 -386 51 -393 30z"/>
                                    <path d="M19685 5777 c-2 -6 -15 -102 -29 -212 -17 -136 -22 -201 -15 -206 6
                                    -3 47 -9 92 -13 128 -11 130 -12 123 -57 -6 -35 -4 -39 19 -45 27 -7 27 1 10
                                    -109 -4 -26 -11 -35 -25 -35 -20 0 -38 -37 -23 -50 7 -7 255 -52 259 -47 1 1
                                    4 12 8 23 5 17 2 23 -19 28 -19 5 -25 13 -25 34 0 39 14 55 39 47 11 -3 21 -2
                                    21 3 0 5 16 128 35 273 37 283 40 319 25 319 -15 0 -432 49 -463 55 -17 3 -29
                                    0 -32 -8z"/>
                                    <path d="M16878 5343 c-31 -235 -55 -429 -54 -430 2 -2 687 -91 736 -96 l25
                                    -2 56 425 c31 234 55 427 53 428 -3 5 -501 71 -531 72 -19 0 -23 -5 -23 -31 0
                                    -22 -4 -30 -13 -26 -8 3 -43 8 -79 12 -59 6 -65 9 -60 27 4 17 10 18 58 12 36
                                    -4 54 -3 54 4 0 19 -21 25 -94 29 l-72 4 -56 -428z"/>
                                    <path d="M20215 5691 c-8 -28 1 -41 30 -41 22 0 23 -3 19 -37 -11 -83 -13 -86
                                    -43 -80 l-27 6 -21 -162 c-12 -89 -21 -163 -20 -163 4 -4 410 -54 413 -52 4 5
                                    66 490 62 492 -2 1 -82 13 -178 25 -96 12 -187 24 -202 27 -20 4 -28 1 -33
                                    -15z"/>
                                    <path d="M19605 5306 c-6 -30 -95 -718 -95 -737 0 -12 43 -20 238 -42 130 -15
                                    247 -28 258 -27 20 0 23 8 34 103 6 56 18 153 26 215 22 177 36 156 -123 178
                                    l-138 19 3 48 c4 45 3 47 -23 47 -20 0 -25 4 -21 18 2 9 7 42 11 73 6 53 7 56
                                    31 51 20 -4 24 -1 24 22 0 14 -1 26 -2 26 -2 1 -52 7 -111 14 -106 12 -108 12
                                    -112 -8z"/>
                                    <path d="M20150 5152 c0 -12 8 -23 18 -26 14 -5 17 -14 14 -46 -4 -35 -7 -39
                                    -26 -34 -21 5 -22 0 -58 -273 -20 -153 -35 -279 -34 -279 3 -4 409 -54 411
                                    -52 6 6 89 668 85 672 -3 2 -79 13 -170 25 -91 12 -182 24 -202 27 -33 5 -38
                                    3 -38 -14z"/>
                                    <path d="M8850 22618 c0 -2 -34 -244 -74 -538 -40 -294 -73 -535 -72 -536 2
                                    -2 1031 -141 1033 -140 5 4 143 1043 141 1060 -3 19 -37 25 -493 88 -456 62
                                    -535 72 -535 66z"/>
                                    <path d="M17910 21989 c0 -7 -54 -409 -120 -894 -66 -486 -120 -894 -120 -909
                                    0 -15 6 -29 13 -31 19 -6 2828 -387 2865 -388 18 -1 37 4 41 11 3 6 58 411
                                    120 899 62 488 115 900 118 916 5 24 10 27 45 27 l40 0 -6 -42 c-39 -276 -736
                                    -5841 -734 -5863 l3 -30 1700 -208 c935 -115 1700 -209 1701 -210 1 -1 31
                                    -254 68 -562 125 -1050 138 -1223 117 -1585 -37 -647 -119 -1762 -147 -2010
                                    -59 -520 -211 -1554 -295 -2010 -60 -329 -459 -1862 -643 -2472 -74 -245 -66
                                    -228 -519 -1198 -375 -804 -427 -922 -438 -978 -18 -94 -64 -419 -114 -810
                                    -29 -227 -54 -414 -56 -416 -16 -11 -629 -437 -769 -533 -409 -282 -933 -619
                                    -1116 -719 l-71 -38 -279 33 c-682 80 -3655 479 -3668 492 -6 5 -56 189 -52
                                    189 1 0 432 -61 957 -135 1547 -218 2285 -318 2769 -375 l245 -29 195 117
                                    c278 165 639 409 1174 792 l464 331 7 77 c3 42 22 205 41 362 18 157 45 383
                                    58 503 25 216 25 219 65 290 143 259 798 1685 851 1852 149 469 680 2481 725
                                    2745 9 52 52 289 95 525 192 1040 209 1176 294 2290 91 1184 96 1457 36 2045
                                    -17 160 -86 722 -117 950 l-8 54 -1619 208 c-891 115 -1621 210 -1622 211 -2
                                    2 3 43 10 92 8 50 12 93 9 98 -2 4 -15 7 -27 7 -26 0 -29 -10 -42 -118 -3 -34
                                    -10 -65 -14 -67 -5 -3 -113 8 -241 25 -292 37 -281 37 -277 3 2 -15 10 -29 18
                                    -30 8 -2 859 -111 1890 -243 1031 -133 1877 -243 1879 -246 3 -3 16 -85 28
                                    -182 12 -97 35 -283 52 -412 65 -504 75 -653 76 -1065 0 -269 -5 -450 -18
                                    -620 -136 -1854 -129 -1794 -348 -3005 -87 -483 -114 -615 -214 -1015 -193
                                    -771 -438 -1691 -565 -2113 -48 -160 -85 -257 -176 -459 -261 -581 -618 -1341
                                    -710 -1511 l-44 -82 -25 -221 c-14 -122 -41 -350 -59 -508 -19 -157 -37 -316
                                    -41 -352 l-6 -67 -427 -305 c-609 -435 -960 -671 -1257 -844 -106 -62 -125
                                    -70 -160 -66 -478 55 -1497 192 -3025 407 -520 74 -946 133 -948 131 -1 -1 85
                                    -336 193 -744 107 -408 195 -744 195 -746 0 -8 29 -5 34 3 3 5 -64 272 -149
                                    593 -84 321 -152 586 -149 588 2 2 369 -46 816 -108 1405 -192 2634 -353 3051
                                    -399 l77 -8 125 72 c298 172 828 520 1370 899 149 104 320 222 380 263 61 42
                                    113 78 117 81 4 3 30 188 58 411 28 223 67 510 86 638 l35 233 98 217 c54 119
                                    214 463 354 764 459 981 432 914 576 1418 143 501 462 1723 531 2034 65 292
                                    209 1221 305 1966 62 485 185 2165 185 2533 0 191 -35 557 -130 1337 -21 179
                                    -45 380 -53 448 -8 68 -18 126 -21 129 -4 4 -767 100 -1697 214 -929 113
                                    -1692 209 -1695 212 -4 3 165 1364 375 3025 210 1660 381 3026 381 3036 0 13
                                    -7 17 -27 14 -27 -3 -28 -6 -38 -88 l-10 -85 -70 -3 -70 -3 -114 -897 c-63
                                    -493 -118 -901 -122 -906 -5 -5 -319 33 -756 93 -411 55 -753 101 -759 101 -6
                                    0 7 107 35 286 l45 285 41 -7 c305 -51 557 -226 600 -417 15 -66 41 -79 31
                                    -16 -20 127 -133 260 -291 341 -105 53 -204 90 -295 108 -36 7 -69 17 -75 23
                                    -7 6 -3 7 10 3 11 -3 43 -10 70 -16 324 -71 558 -251 591 -458 7 -43 22 -52
                                    53 -33 20 13 7 83 -28 157 -31 66 -117 165 -190 218 -100 74 -262 141 -441
                                    183 -108 25 -404 25 -512 0 -165 -39 -304 -117 -388 -218 -59 -71 -68 -95 -43
                                    -114 25 -20 25 -20 56 30 67 106 203 194 363 236 88 22 324 36 387 22 26 -5
                                    -15 -8 -130 -9 -141 0 -181 -4 -252 -22 -173 -47 -312 -140 -370 -250 -24 -46
                                    2 -42 34 5 81 120 226 203 406 232 74 12 336 15 342 4 3 -5 -16 -133 -41 -285
                                    -37 -231 -47 -278 -61 -278 -39 1 -1231 167 -1237 172 -3 4 47 390 110 860 64
                                    469 117 869 118 888 3 31 0 35 -24 38 -17 2 -28 -1 -28 -9z"/>
                                    <path d="M8680 21318 c-13 -95 -49 -364 -80 -598 -31 -234 -54 -428 -51 -431
                                    12 -12 1091 -153 1100 -143 9 10 107 1192 99 1200 -4 4 -1012 144 -1037 144
                                    -5 0 -19 -78 -31 -172z"/>
                                    <path d="M8546 20218 c-8 -27 -77 -560 -73 -564 5 -6 1099 -156 1102 -152 3 3
                                    70 486 77 552 l3 30 -530 73 c-291 40 -540 72 -553 73 -12 0 -24 -6 -26 -12z"/>
                                    <path d="M17815 20078 c-10 -59 -575 -4382 -572 -4383 9 -5 2340 -306 2343
                                    -302 6 6 583 4401 578 4406 -2 2 -513 70 -1136 152 -623 81 -1150 150 -1170
                                    154 -36 5 -37 4 -43 -27z"/>
                                    <path d="M6432 19833 l3 -28 229 -33 c125 -18 234 -31 242 -28 17 7 18 45 2
                                    51 -19 7 -426 65 -455 65 -21 0 -24 -4 -21 -27z"/>
                                    <path d="M6976 19739 c-29 -204 -127 -1117 -150 -1409 -26 -317 -56 -1000 -45
                                    -1000 2 0 620 -76 1374 -169 753 -93 1370 -169 1371 -168 3 4 204 2384 204
                                    2414 0 28 -4 33 -32 38 -50 8 -2585 325 -2654 332 l-61 6 -7 -44z"/>
                                    </g>
                                    </svg>
